# xmcd
#
# Track frame offsets: 
#        150
#        12417
#        24135
#        35522
#        47977
#        61547
#        76202
#
# Disc length: 1206 seconds
#
# Revision: 1
# Processed by: cddbd v1.5.2PL0 Copyright (c) Steve Scherf et al.
# Submitted via: ExactAudioCopyFreeDBPlugin 1.0
#
DISCID=4604b407
DTITLE=Louis Jordan - Let the Good Times Roll-  The Complete US Decca 
DTITLE=Recordings, 1938-1954 [Bear Family box set]
DYEAR=1992
DGENRE=Rhythm and Blues
TTITLE0=Stone Cold Dead in the Market
TTITLE1=Petootie Pie (original release)
TTITLE2=Petootie Pie (previously unreleased)
TTITLE3=Baby, It's Cold Outside
TTITLE4=Don't Cry, Cry Baby
TTITLE5=Ain't Nobody's Business But My Own
TTITLE6=I'll Never Be Free
EXTD=
EXTT0=
EXTT1=
EXTT2=
EXTT3=
EXTT4=
EXTT5=
EXTT6=
PLAYORDER=
